<?xml version="1.0" encoding="utf-8"?>
<!-- Generator: Adobe Illustrator 25.4.6, SVG Export Plug-In . SVG Version: 6.00 Build 0)  -->
<svg version="1.1" baseProfile="tiny" id="die" xmlns="http://www.w3.org/2000/svg" xmlns:xlink="http://www.w3.org/1999/xlink"
	 x="0px" y="0px" viewBox="0 0 400 400" overflow="visible" xml:space="preserve">
<path fill="#FFFFFF" d="M67.2,50.3c17.8-12.6,46.4-44.7,123.3-49s147.1,32.2,177.3,80.2c32.9,52.3,33.8,92.9,20.3,159.6
	c-13.5,66.7,7.6,110.6-92,142.7c-90.7,29.2-141,11-192.5-9.3C52,354.2,17.4,312,9.8,246.1S-11.3,106,67.2,50.3z"/>
<g>
	<path fill="#FFC527" d="M216.5,359.3c18.6-8.5,36.3-18.7,54.3-28.4c16.6-8.9,33.5-16.1,50.6-23.6c6.2-2.8,12.8-5.5,18.3-9.6
		c8.2-6,12.5-15.2,13.4-25.2c1-11,0.4-22.4,0.3-33.4c-0.1-10.5-0.2-21-0.5-31.5c-0.8-25.6-2.3-51.2-4.1-76.7
		c-0.4-6-5-11.9-11.6-11.6c-5.9,0.3-12.1,5.1-11.6,11.6c3.1,43.4,5,86.8,4.7,130.3c0,2.5,0,5-0.1,7.6c0,0.9-0.1,1.8-0.1,2.7
		c0,0.7-0.8,3.5,0,0.7c-0.2,0.8-0.4,1.7-0.6,2.5c-0.6,2.5,1.3-1.8-0.2,0.4c-0.5,0.8-1,1.6-1.5,2.4c1.4-2-1.1,1.1-1.3,1.4
		c-1,1.4,2.2-1.4,1-0.7c-0.4,0.3-0.9,0.6-1.3,0.9c-1.3,0.8-2.7,1.6-4,2.3c-3.2,1.7-6.5,3.3-9.9,4.8c-1.6,0.7-3.1,1.4-4.7,2.1
		c-0.7,0.3-1.4,0.6-2.1,0.9c-2.3,1,2.6-1,0.5-0.2c-5,1.9-10,4.1-14.9,6.3c-9.4,4.1-18.6,8.7-27.7,13.5
		c-19.4,10.3-38.4,21.5-58.4,30.7c-5.7,2.6-7.1,10.8-4.2,15.9C204.1,361,210.8,361.9,216.5,359.3L216.5,359.3z"/>
	<path fill="#F0F3F9" d="M320.3,216.3c-8.1-0.3-16.1-0.5-24.2-0.8c1.8-2,3-4.6,2.8-7.4c-0.2-3.4-1.6-6.3-3.8-8.4
		c6.4-0.3,12.8-0.6,19.2-0.9c6.1-0.3,11.9-5.2,11.6-11.6c-0.3-6.6-5.1-11.2-11.6-11.6c-6.2-0.4-12.5-0.7-18.7-1
		c0.7-1,1.2-2.1,1.5-3.3c1.5-0.1,3-0.3,4.5-0.4c4.2-0.4,8.3-2.7,10.3-6.3c4.9-1.6,7.7-7.7,7-12.4c-0.8-5.7-5.6-10-11.4-10.1
		c-12,0-24-0.3-36-0.7c5.1-0.9,10.2-1.8,15.2-2.8c5.7-1.1,9-7.4,8.3-12.7c-0.8-5.8-5.6-9.9-11.4-10.1c-0.4,0-0.8,0-1.3,0
		c2.3-6.8-1.6-15.5-10.6-15.5c-7.5,0-15,0.1-22.5,0.3c0-0.8-0.1-1.5-0.3-2.3c-0.5-1.8-1.3-3.3-2.4-4.4c2.9-2.6,4.4-6.8,3.9-10.5
		c-0.8-5.8-5.6-9.8-11.4-10.1c-5.5-0.3-11.1-0.5-16.6-0.6c-1-0.6-2-1.1-3.2-1.3c-15.1-2.8-30.1-5.6-45.2-8.4
		c-5.9-1.1-12.8,1.6-14.3,8.1c-0.2,0.7-0.2,1.4-0.3,2.1c-1.9,0.1-3.7,0.1-5.6,0.2c-6.1,0.3-11.9,5.1-11.6,11.6
		c0,1.1,0.3,2.1,0.6,3.2c-14,1.7-28.1,3.2-42.3,4.5c-6,0.5-11.9,4.9-11.6,11.6c0.2,5,2.9,8.6,6.9,10.4c-3.9,0.7-7.8,1.4-11.7,2.1
		c-6.2,1.1-9.6,8.6-8.1,14.3c1.1,4.1,4,6.7,7.6,7.7c-2.3,0.1-4.7,0.2-7,0.4c-6,0.3-11.9,5.1-11.6,11.6c0.3,6.1,5.1,11.8,11.6,11.6
		c9-0.3,18-0.7,26.9-1.2c18.6-0.6,37.3-0.7,56-0.4c-11.9,1.5-23.8,3-35.6,4.6c0,0,0,0,0,0c0,0,0,0,0,0c-1,0.1-2.1,0.3-3.1,0.4
		c-1.5,0.2-2.8,0.9-4,1.8c-11,1-22,1.9-33,3c-6,0.6-11.9,4.9-11.6,11.6c0.1,3.2,1.3,5.9,3.3,7.9c-3.5,2-6.1,5.6-5.9,9.9
		c0.2,4.2,2.3,7.8,5.6,9.8c-1.2,1.8-1.9,3.9-1.8,6.2c0.3,6.1,5.1,11.8,11.6,11.6c6.2-0.2,12.4-0.4,18.6-0.5c-0.1,0.8-0.1,1.5,0,2.2
		c0.5,4.1,3.3,7.7,7.1,9.3c-9.3,0.1-18.6,0.2-28,0.6c-6.1,0.2-11.9,5.2-11.6,11.6c0.3,6.7,5.1,11.1,11.6,11.6
		c10.8,0.8,21.7,1.7,32.5,2.5c-2.3,2.1-3.9,5-3.7,8.3c0.3,6.3,5.1,11.6,11.6,11.6c0.8,0,1.7,0,2.5,0c-0.5,1.3-0.8,2.6-0.7,4
		c0.3,6.4,5.1,11.5,11.6,11.6c6.7,0.1,13.5,0.1,20.2,0.1c-2.7,2.2-4.5,5.5-4.4,9c0.2,4.7,3.4,10.4,8.5,11.2
		c8.6,1.3,17.2,2.4,25.8,3.2c2,1.9,4.7,3.1,7.8,3.5c1.4,0.7,3,1.1,4.8,1.2c6.5,0.4,13,0.9,19.5,1.3c3.5,0.2,6.9-1.7,9.1-4.5
		c1.2-0.1,2.4-0.3,3.5-0.4c6-0.7,11.9-4.9,11.6-11.6c-0.3-6.1-5.1-11.9-11.6-11.6c-6.6,0.3-13.3,0.3-20,0.2c0.1-0.7,0.2-1.4,0.2-2.1
		c1-0.2,1.9-0.4,2.9-0.6c30.1-1.5,60.1-5.2,90.2-8c6-0.6,11.9-4.9,11.6-11.6c-0.3-6.2-5.1-11.8-11.6-11.6
		c-8.4,0.2-16.8,0.5-25.1,0.9c-0.8-2-2.1-3.7-3.7-5c10.5,0,21-0.1,31.5-0.9c6-0.4,11.9-5,11.6-11.6c-0.2-4.8-3.2-9.3-7.7-10.9
		c2.9-0.3,5.8-0.7,8.7-1c6-0.7,11.9-4.8,11.6-11.6C331.6,221.4,326.8,216.6,320.3,216.3z"/>
	<path fill="#4872AD" d="M184.3,343.5c-23-11.1-44.7-24.8-66.4-38.3c-12.3-7.7-24.5-15.5-36.7-23.4c-2.4-1.5-4.8-3.1-7.4-4.3
		c-2.6-1.2-5.5-2-7.9-3.7c-5-3.3-5.3-10.6-5.7-16c-2.7-31.7-3.8-63.5-3.6-95.2c0.1-7.9,0.2-15.9,0.5-23.8c0.2-6.2-0.4-12.5,5.1-16.6
		c6-4.5,13.1-7.7,19.6-11.4c6.7-3.8,13.4-7.6,20-11.5c27.6-15.8,55.1-31.8,82.8-47.4c2.8-1.6,5.5-3.2,8.9-2.5
		c3.5,0.7,6.7,2.9,9.8,4.5c7,3.7,14,7.4,21,11.1c13.8,7.3,27.6,14.6,41.4,21.8c14,7.4,28,14.7,41.9,22.1c5.7,3,11.1,6.1,14,12.1
		c2.8,6,3.4,13,4.2,19.4c3.9,30.8,5.4,62,4.4,93c-0.2,7.8-0.6,15.7-1.2,23.5c-0.3,3.8-0.6,7.6-0.9,11.3c-0.3,3.6-0.5,6-3.9,7.7
		c-6.2,3.1-13,5.3-19.4,8c-6.6,2.8-13.2,5.8-19.7,8.9c-25.9,12.2-50.8,26.5-74.4,42.6c-6,4.1-11.8,8.2-17.6,12.5
		c-5.2,3.8-0.1,12.6,5.1,8.8c24.7-18.2,50.9-34.4,78.3-48.3c13.5-6.9,27.3-13.2,41.3-18.9c6.1-2.5,14.3-4.3,17.9-10.2
		c1.8-2.9,2.2-6.2,2.5-9.5c0.4-4.3,0.7-8.6,1.1-12.8c2.3-33,1.9-66.2-1.3-99.2c-0.8-8.2-1.8-16.4-2.9-24.5
		c-0.9-6.7-2.2-13.6-5.8-19.5c-3.6-6-9.3-9.8-15.4-13.1c-7.3-3.9-14.7-7.7-22-11.6c-29.5-15.6-58.7-31.8-88.5-46.7
		c-6.8-3.4-13.2-4.6-20.4-1.2c-7.2,3.4-14,7.9-20.8,11.8c-14.7,8.4-29.4,16.8-44.1,25.2S88.7,95.2,74,103.6
		c-6.4,3.7-13.6,7-19.3,11.7c-5.5,4.6-7.1,10.8-7.5,17.7c-1.7,33.4-0.9,67,1.1,100.3c0.5,8.4,1.1,16.9,1.8,25.3
		c0.6,6.3,1.2,13.1,4.9,18.5c3.8,5.5,9.5,7.1,15.2,9.9c6.6,3.2,12.6,7.9,18.8,11.8c24.7,15.8,49.4,31.6,75.1,45.6
		c5,2.7,10,5.3,15,7.8C185.1,355.1,190.2,346.4,184.3,343.5L184.3,343.5z"/>
	<path fill-rule="evenodd" fill="#DA1A00" d="M272.9,225.3c-21.6,28.6-49,52.6-82.3,72.2c-34.7-29.3-57.8-43.3-78.4-75.6
		c-12.7-9.2-15.6-53.9-7-65.7c8.1-12.3,16.8-25,31.1-32.6c18-6.4,50.4,31.3,54.4,49.7c4,18.3,23.9-29.9,34.5-38.5
		c21-12.3,56.5-13.4,61.4,33.2C288.9,184.4,281.5,208.9,272.9,225.3"/>
	<path fill="#4872AD" d="M54,127.7c10.7,4.5,21.1,9.7,31.1,15.4c2.3,1.3,5.6,0.6,6.9-1.8c1.3-2.4,0.6-5.5-1.8-6.9
		c-10.1-5.7-20.5-10.9-31.1-15.4c-2.4-1-5.5-0.8-6.9,1.8C51.1,122.9,51.4,126.5,54,127.7L54,127.7z"/>
	<path fill="#4872AD" d="M302.5,133.6c7.6-4,15.2-8.1,22.8-12.1c2.3-1.2,3.3-4.7,1.8-6.9c-1.5-2.4-4.4-3.1-6.9-1.8
		c-7.6,4-15.2,8.1-22.8,12.1c-2.3,1.2-3.3,4.7-1.8,6.9C297.1,134.2,300,134.9,302.5,133.6L302.5,133.6z"/>
</g>
</svg>
