<svg id="die" xmlns="http://www.w3.org/2000/svg" viewBox="0 0 400 400"><defs><style>.cls-1{fill:#ffc527;}.cls-2{fill:#f0f3f9;}.cls-3{fill:#4872ad;}.cls-4{fill:#da1a00;fill-rule:evenodd;}</style></defs><path class="cls-1" d="M218.42,377.38c20.71-9.5,40.39-20.84,60.41-31.66,18.43-10,37.33-17.89,56.32-26.32,6.94-3.08,14.24-6.14,20.39-10.64,9.17-6.71,13.9-16.95,14.92-28.05,1.12-12.26.43-24.92.36-37.22q-.1-17.52-.62-35c-.83-28.49-2.57-57-4.61-85.38-.48-6.72-5.6-13.24-12.92-12.92-6.58.3-13.43,5.7-12.91,12.92,3.47,48.32,5.6,96.63,5.18,145.08,0,2.81,0,5.62-.1,8.42,0,1-.06,2-.13,3,0,.78-.84,3.95,0,.75-.23.92-.48,1.87-.69,2.8-.65,2.79,1.45-2-.22.44-.59.86-1.08,1.8-1.68,2.66,1.51-2.18-1.19,1.21-1.42,1.55-1.08,1.57,2.43-1.54,1.09-.8-.5.28-1,.66-1.45,1-1.46.93-3,1.76-4.49,2.57-3.6,1.91-7.29,3.65-11,5.33-1.74.8-3.48,1.57-5.24,2.33l-2.28,1c-2.52,1.1,2.84-1.11.57-.24-5.6,2.13-11.11,4.57-16.59,7-10.48,4.61-20.75,9.65-30.86,15-21.65,11.48-42.73,23.91-65,34.14-6.34,2.91-7.9,12.07-4.63,17.67,3.81,6.51,11.31,7.55,17.67,4.63Z"/><path class="cls-2" d="M333.93,218.19c-9-.36-18-.59-26.94-.87a11.48,11.48,0,0,0,3.15-8.29,13.43,13.43,0,0,0-4.24-9.37q10.69-.54,21.4-1c6.74-.28,13.24-5.74,12.92-12.91-.33-7.39-5.68-12.43-12.92-12.92-6.93-.47-13.88-.8-20.83-1.1a11.58,11.58,0,0,0,1.71-3.68l5-.48c4.71-.46,9.29-3,11.51-7,5.43-1.76,8.52-8.57,7.82-13.76a12.89,12.89,0,0,0-12.68-11.2c-13.36,0-26.72-.34-40.07-.73,5.66-1,11.33-2.05,17-3.15,6.3-1.23,10.05-8.27,9.26-14.17a13,13,0,0,0-12.69-11.2l-1.4,0C294.43,98.69,290.14,89,280.09,89q-12.51,0-25,.34a11.22,11.22,0,0,0-.39-2.53,12.31,12.31,0,0,0-2.63-4.94,13.78,13.78,0,0,0,4.36-11.65c-.87-6.51-6.19-10.88-12.68-11.2-6.17-.3-12.33-.5-18.5-.69a10,10,0,0,0-3.58-1.5l-50.34-9.31c-6.62-1.23-14.25,1.82-15.89,9a13.39,13.39,0,0,0-.3,2.31c-2.09.09-4.17.13-6.26.24-6.73.34-13.24,5.69-12.91,12.91a13.79,13.79,0,0,0,.66,3.52q-23.45,2.84-47.05,5c-6.71.6-13.24,5.5-12.91,12.91A12.73,12.73,0,0,0,84.34,105l-13,2.29c-6.88,1.21-10.75,9.62-9,15.89a12.12,12.12,0,0,0,8.46,8.62c-2.6.14-5.19.25-7.79.4-6.73.38-13.24,5.67-12.91,12.92.3,6.81,5.68,13.14,12.91,12.91,10-.31,20-.77,30-1.3q31.14-1,62.31-.42-19.86,2.43-39.69,5.13h0l-3.43.46a9,9,0,0,0-4.41,2C95.47,164.92,83.22,166,71,167.14c-6.71.64-13.25,5.49-12.92,12.92a13.32,13.32,0,0,0,3.62,8.75c-3.94,2.22-6.83,6.22-6.62,11.05a13.24,13.24,0,0,0,6.22,10.87,11.28,11.28,0,0,0-2,7c.3,6.83,5.68,13.12,12.91,12.92l20.71-.6a12.24,12.24,0,0,0,0,2.5,13.25,13.25,0,0,0,7.91,10.31c-10.38.08-20.76.27-31.13.68-6.75.26-13.24,5.75-12.92,12.91.33,7.45,5.68,12.36,12.92,12.92l36.23,2.81a11.66,11.66,0,0,0-4.12,9.28c.31,7,5.67,12.92,12.91,12.92h2.82a11.06,11.06,0,0,0-.77,4.46,13.16,13.16,0,0,0,12.92,12.91q11.23.17,22.47.11a12.6,12.6,0,0,0-4.89,10c.23,5.23,3.79,11.56,9.48,12.45q14.34,2.24,28.76,3.52a14.93,14.93,0,0,0,8.7,3.92,15.11,15.11,0,0,0,5.33,1.35l21.72,1.48c3.89.27,7.65-1.89,10.11-5l3.94-.44c6.69-.74,13.25-5.4,12.91-12.91-.3-6.77-5.68-13.2-12.91-12.92-7.41.29-14.86.35-22.31.23a10.65,10.65,0,0,0,.2-2.32l3.22-.72c33.55-1.62,66.93-5.83,100.46-8.91,6.7-.62,13.24-5.5,12.91-12.92-.31-6.86-5.68-13.08-12.91-12.91-9.34.21-18.66.59-28,1a13.35,13.35,0,0,0-4.12-5.55c11.7,0,23.41-.16,35.09-1,6.72-.46,13.24-5.61,12.91-12.92a13.71,13.71,0,0,0-8.53-12.17c3.23-.38,6.47-.73,9.7-1.11,6.69-.79,13.26-5.37,12.92-12.91A13.2,13.2,0,0,0,333.93,218.19Z"/><path class="cls-3" d="M182.56,359.77c-25.57-12.41-49.82-27.57-73.87-42.64q-20.53-12.87-40.87-26a60.87,60.87,0,0,0-8.21-4.73c-2.94-1.3-6.16-2.26-8.84-4.07-5.53-3.73-5.86-11.86-6.36-17.85q-4.45-52.87-4-106,.12-13.26.54-26.53c.22-6.87-.44-14,5.62-18.49,6.64-5,14.61-8.62,21.79-12.74L90.7,87.9c30.74-17.59,61.38-35.36,92.22-52.78,3.15-1.77,6.12-3.54,9.85-2.76,3.89.82,7.5,3.2,11,5l23.41,12.36,46.07,24.32q23.34,12.32,46.68,24.64c6.31,3.35,12.39,6.81,15.58,13.53s3.79,14.45,4.7,21.65a659,659,0,0,1,4.92,103.57q-.4,13.06-1.34,26.12c-.3,4.21-.63,8.41-1,12.62-.37,4-.57,6.66-4.38,8.56-6.92,3.46-14.53,5.87-21.65,8.9q-11.08,4.72-22,9.88a617.65,617.65,0,0,0-82.84,47.39q-10,6.76-19.65,13.92c-5.78,4.26-.16,14.06,5.7,9.75a622,622,0,0,1,87.15-53.79q22.53-11.44,46-21c6.74-2.74,15.9-4.74,20-11.37,2-3.21,2.42-6.88,2.79-10.55.49-4.76.84-9.53,1.18-14.3a659.81,659.81,0,0,0-1.42-110.41q-1.33-13.69-3.23-27.32c-1-7.48-2.5-15.14-6.47-21.68S333.51,93.23,326.8,89.62c-8.13-4.37-16.32-8.63-24.48-12.94-32.83-17.33-65.39-35.37-98.57-52-7.62-3.81-14.75-5.09-22.68-1.35s-15.53,8.76-23.18,13.14L108.81,64.54,59.72,92.63c-7.17,4.11-15.08,7.76-21.46,13.07-6.12,5.1-7.95,12-8.34,19.71C28,162.55,29,200,31.17,237.13c.56,9.39,1.21,18.79,2,28.17.62,7,1.39,14.55,5.49,20.56s10.55,7.91,16.91,11c7.3,3.57,14.07,8.81,20.92,13.19,27.45,17.56,55,35.18,83.61,50.78,5.52,3,11.09,5.91,16.74,8.65,6.51,3.16,12.24-6.57,5.7-9.74Z"/><path class="cls-4" d="M281.12,228.17q-36,47.68-91.66,80.35c-38.58-32.67-64.37-48.23-87.29-84.13-14.11-10.22-17.36-60-7.83-73.13,9-13.7,18.75-27.82,34.58-36.29,20-7.18,56.13,34.86,60.54,55.29s26.58-33.34,38.41-42.89c23.42-13.72,62.89-14.91,68.34,37,2.72,18.25-5.45,45.48-15.09,63.79"/><path class="cls-3" d="M37.47,119.45a331.34,331.34,0,0,1,34.66,17.19,5.64,5.64,0,1,0,5.69-9.75,334.07,334.07,0,0,0-34.65-17.18c-2.71-1.15-6.18-.9-7.72,2-1.28,2.41-.88,6.48,2,7.71Z"/><path class="cls-3" d="M314.14,126.07l25.34-13.44a5.69,5.69,0,0,0,2-7.72,5.77,5.77,0,0,0-7.72-2l-25.35,13.45a5.68,5.68,0,0,0-2,7.72,5.77,5.77,0,0,0,7.72,2Z"/></svg>